<?xml version="1.0" encoding="utf-8"?>
<!-- Generator: Adobe Illustrator 23.1.0, SVG Export Plug-In . SVG Version: 6.00 Build 0)  -->
<svg version="1.1" id="Livello_1" xmlns="http://www.w3.org/2000/svg" xmlns:xlink="http://www.w3.org/1999/xlink" x="0px" y="0px"
	 viewBox="0 0 640 512" style="enable-background:new 0 0 640 512;" xml:space="preserve">
<style type="text/css">
	.st0{display:none;}
	.st1{display:inline;}
</style>
<g focusable="false">
</g>
<g id="Invisible" class="st0">
	<path class="st1" d="M320,400c-75.9,0-137.3-58.7-142.9-133.1L72.2,185.8c-13.8,17.3-26.5,35.6-36.7,55.6c-4.6,9.2-4.6,20,0,29.2
		C89.7,376.4,197.1,448,320,448c26.9,0,52.9-4,77.9-10.5L346,397.4C337.4,399,328.7,399.9,320,400z"/>
	<path class="st1" d="M633.8,458.1l-110.5-85.4c33.6-28.3,61.2-63,81.3-102.1c4.6-9.2,4.6-20,0-29.2C550.3,135.6,442.9,64,320,64
		c-51.5,0.1-102.1,13-147.3,37.7L45.5,3.4c-7-5.4-17-4.2-22.5,2.8l0,0L3.4,31.5c-5.4,7-4.2,17,2.8,22.5l588.4,454.7
		c7,5.4,17,4.2,22.5-2.8l0,0l19.6-25.3C642.1,473.6,640.8,463.5,633.8,458.1z M450.1,316.1l-39.3-30.4c3.3-9.6,5.1-19.6,5.2-29.7
		c0.7-52.3-41.2-95.3-93.5-96c-9.4-0.1-18.8,1.2-27.8,3.8c6,8.2,9.3,18.1,9.3,28.2c-0.1,3.4-0.7,6.7-1.5,10l-73.6-56.9
		c25.6-21.4,57.8-33.1,91.2-33.1c79.5,0,144,64.4,144,143.8c0,0.1,0,0.1,0,0.2C464,277.6,458.7,297.8,450.1,316.1L450.1,316.1z"/>
</g>
<g id="Invisibile_cond" class="st0">
	<path class="st1" d="M320,400c-75.9,0-137.3-58.7-142.9-133.1L72.2,185.8c-13.8,17.3-26.5,35.6-36.7,55.6c-4.6,9.2-4.6,20,0,29.2
		C89.7,376.4,197.1,448,320,448c26.9,0,52.9-4,77.9-10.5L346,397.4C337.4,399,328.7,399.9,320,400z"/>
	<path class="st1" d="M633.8,458.1l-110.5-85.4c33.6-28.3,61.2-63,81.3-102.1c4.6-9.2,4.6-20,0-29.2c-3.5-6.8-7.2-13.5-11.2-20.1
		C571.5,261,529.2,288,480.7,288c-6.8,0-13.6-0.5-20.1-1.6c-2.4,10.3-5.9,20.3-10.4,29.7l0,0l-39.3-30.4c1.8-5.2,3.1-10.5,4-15.8
		c-36.1-21.5-60.7-60.2-62.6-104.7c-9.3-3.2-19.3-5-29.6-5.1c-9.4-0.1-18.8,1.2-27.8,3.8c6,8.2,9.3,18.1,9.3,28.2
		c-0.1,3.4-0.7,6.7-1.5,10l-73.6-56.9c25.6-21.4,57.8-33.1,91.2-33.1c13.5,0,26.6,1.9,39,5.3c6-17.3,15.6-33,27.9-46.1
		c-21.6-4.7-44-7.3-67-7.3c-51.5,0.1-102.1,13-147.3,37.7L45.5,3.4c-7-5.4-17-4.2-22.5,2.8l0,0L3.4,31.5c-5.4,7-4.2,17,2.8,22.5
		l588.4,454.7c7,5.4,17,4.2,22.5-2.8l0,0l19.6-25.3C642.1,473.6,640.8,463.5,633.8,458.1z"/>
</g>
<g id="Repeatable" class="st0">
	<path class="st1" d="M301.3,288l-218.6,0.4c-10.4,0-18.8-8.4-18.8-18.8L64,82.8C64,72.4,72.4,64,82.8,64l218.5,0.5
		c10.4,0,18.8,8.4,18.8,18.8v186C320.1,279.6,311.7,288,301.3,288z"/>
	<path class="st1" d="M557.3,224.5l-76.2-0.2v157.9c0,10.4-8.4,18.8-18.8,18.8L320,401.2v28.4c0,10.4,8.4,18.8,18.8,18.8l218.6-0.4
		c10.4,0,18.8-8.4,18.8-18.8v-186C576.1,232.9,567.7,224.5,557.3,224.5z"/>
	<path class="st1" d="M429.3,144.5l-76.2-0.2v157.9c0,10.4-8.4,18.8-18.8,18.8L192,321.2v28.4c0,10.4,8.4,18.8,18.8,18.8l218.6-0.4
		c10.4,0,18.8-8.4,18.8-18.8v-186C448.1,152.9,439.7,144.5,429.3,144.5z"/>
</g>
<g id="Repeatable_cond" class="st0">
	<path class="st1" d="M301.3,288l-218.6,0.4c-10.4,0-18.8-8.4-18.8-18.8L64,82.8C64,72.4,72.4,64,82.8,64l218.5,0.5
		c10.4,0,18.8,8.4,18.8,18.8v186C320.1,279.6,311.7,288,301.3,288z"/>
	<path class="st1" d="M353.1,176v126.3c0,10.4-8.4,18.8-18.8,18.8L192,321.2v28.4c0,10.4,8.4,18.8,18.8,18.8l218.6-0.4
		c10.4,0,18.8-8.4,18.8-18.8v-65.4C398,270.8,359.8,228.3,353.1,176z"/>
	<path class="st1" d="M481.1,288v94.2c0,10.4-8.4,18.8-18.8,18.8L320,401.2v28.4c0,10.4,8.4,18.8,18.8,18.8l218.6-0.4
		c10.4,0,18.8-8.4,18.8-18.8V245.5C552.6,271.5,518.8,287.9,481.1,288z"/>
</g>
<g id="Required" class="st0">
	<path class="st1" d="M568,256c0,137-111,248-248,248S72,393,72,256C72,119.1,183,8,320,8S568,119.1,568,256z M320,306
		c-25.4,0-46,20.6-46,46s20.6,46,46,46s46-20.6,46-46S345.4,306,320,306z M276.3,140.7l7.4,136c0.3,6.4,5.6,11.3,12,11.3h48.5
		c6.4,0,11.6-5,12-11.3l7.4-136c0.4-6.9-5.1-12.7-12-12.7h-63.4C281.4,128,276,133.8,276.3,140.7L276.3,140.7z"/>
</g>
<g id="Required_cond" class="st0">
	<path class="st1" d="M480.6,288c-55.1,0-102.1-34.7-120.4-83.4l-3.9,72c-0.3,6.4-5.6,11.3-12,11.3h-48.5c-6.4,0-11.6-5-12-11.3
		l-7.4-136l0,0c-0.4-6.9,5.1-12.7,12-12.7h63.4c1.4,0,2.8,0.3,4,0.7c10.4-42.4,41.8-76.5,82.5-90.7C403.1,18.9,362.8,8,320,8
		C183,8,72,119.1,72,256c0,137,111,248,248,248s248-111,248-248c0-0.8,0-1.5,0-2.3C545,275,514.3,288,480.6,288z M320,398
		c-25.4,0-46-20.6-46-46s20.6-46,46-46s46,20.6,46,46S345.4,398,320,398z"/>
</g>
<g id="Validate" class="st0">
	<path class="st1" d="M568,257c0,137-111,248-248,248S72,394,72,257S183,9,320,9S568,120,568,257z M291.3,388.3l184-184
		c6.2-6.2,6.2-16.4,0-22.6l-22.6-22.6c-6.2-6.2-16.4-6.2-22.6,0L280,309.1L209.9,239c-6.2-6.2-16.4-6.2-22.6,0l-22.6,22.6
		c-6.2,6.2-6.2,16.4,0,22.6l104,104C274.9,394.6,285.1,394.6,291.3,388.3L291.3,388.3z"/>
</g>
<g id="Disabled" class="st0">
	
		<rect x="301.7" y="39.5" transform="matrix(0.7071 -0.7071 0.7071 0.7071 -91.6835 300.4554)" class="st1" width="30.2" height="442.8"/>
	<g class="st1">
		<polygon points="408,294.1 456.6,245.6 332.8,121.8 284.2,170.3 		"/>
		<polygon points="226.3,228.3 72,382.5 72,501.6 200.5,501.6 350.1,352.1 		"/>
	</g>
	<path class="st1" d="M562.9,114.6l-99.1-99.1c-6.8-6.8-17.9-6.8-24.7,0L359.6,95l123.8,123.8l79.5-79.5
		C569.7,132.5,569.7,121.4,562.9,114.6z"/>
</g>
<g id="Disabled_cond">
	<rect x="301.7" y="39.5" transform="matrix(0.7071 -0.7071 0.7071 0.7071 -91.6835 300.4554)" width="30.2" height="442.8"/>
	<path d="M479.9,31.6l-16.1-16.1c-6.8-6.8-17.9-6.8-24.7,0L359.6,95l6.5,6.5C387.3,60.1,430.3,31.8,479.9,31.6z"/>
	<polygon points="226.3,228.3 72,382.5 72,501.6 200.5,501.6 350.1,352.1 	"/>
	<path d="M352.1,159.8c0-5.9,0.4-11.8,1.2-17.5l-20.5-20.5l-48.6,48.6L408,294.1l18.1-18.1C382.4,255.6,352.1,211.2,352.1,159.8z"/>
</g>
<g id="Addons" class="st0">
	<path id="Asterisk" d="M549,92.3c-12.3-12.7-28-22-45.6-26.4L480,106.4L456.6,66C439,70.3,423.3,79.6,411,92.3l23.3,40.4h-46.7
		c-2.4,8.4-3.7,17.2-3.7,26.3s1.3,18,3.7,26.3h46.7L411,225.8c12.3,12.7,28,22,45.6,26.4l23.4-40.4l23.4,40.4
		c17.6-4.4,33.3-13.7,45.6-26.4l-23.3-40.4h46.7c2.4-8.4,3.7-17.2,3.7-26.3s-1.3-18-3.7-26.3h-46.7L549,92.3z"/>
	<g id="Curly">
		<g class="st1">
			<path d="M494.4,257.4v-36.3c10.8,0,31.3-1.2,33.6-2c-0.6-3.3-2.5-8.8-3.8-12.3c-4.6-13-10.9-30.7-0.3-46
				c-10.8-15.4-4.5-33.2,0.1-46.2c1.3-3.6,3.2-9.1,3.8-12.3c-2.3-0.8-22.7-2-33.4-2V64c15.7,0,53,1.8,63.9,17.3
				c10.6,15,4.4,32.6-0.1,45.4c-1.4,3.9-3.5,10-3.9,13.2c2.3,0.9,8.3,2.7,21.7,2.7v36.3c-13.3,0-19.2,1.7-21.5,2.6
				c0.4,3.3,2.6,9.3,3.9,13.1c4.6,12.8,10.8,30.4,0.2,45.5C547.6,255.6,510.2,257.4,494.4,257.4z M553.2,182.1L553.2,182.1
				L553.2,182.1z M553.1,139.3L553.1,139.3L553.1,139.3z"/>
		</g>
		<g class="st1">
			<path d="M401.4,240.1c-10.6-15.1-4.4-32.6,0.2-45.5c1.4-3.8,3.5-9.9,3.9-13.1c-2.3-0.9-8.3-2.6-21.5-2.6v-36.3
				c13.4,0,19.4-1.7,21.7-2.7c-0.4-3.3-2.6-9.4-3.9-13.2c-4.5-12.8-10.7-30.4-0.1-45.4c11-15.5,48.2-17.3,63.9-17.3v36.3
				c-10.7,0-31.1,1.2-33.4,2c0.6,3.3,2.5,8.8,3.8,12.3c4.6,13,10.9,30.8,0.1,46.2c10.7,15.3,4.4,33.1-0.3,46
				c-1.3,3.6-3.2,9.1-3.8,12.3c2.4,0.8,22.8,2,33.6,2v36.3C449.8,257.4,412.4,255.6,401.4,240.1z M406.8,182.1L406.8,182.1
				L406.8,182.1z M406.9,139.3L406.9,139.3L406.9,139.3z"/>
		</g>
	</g>
	<circle id="Dot" class="st1" cx="480.3" cy="159.8" r="95.8"/>
</g>
<g id="Addons_1_" class="st0">
	<path id="Asterisk_1_" d="M549,92.3c-12.3-12.7-28-22-45.6-26.4L480,106.4L456.6,66C439,70.3,423.3,79.6,411,92.3l23.3,40.4h-46.7
		c-2.4,8.4-3.7,17.2-3.7,26.3s1.3,18,3.7,26.3h46.7L411,225.8c12.3,12.7,28,22,45.6,26.4l23.4-40.4l23.4,40.4
		c17.6-4.4,33.3-13.7,45.6-26.4l-23.3-40.4h46.7c2.4-8.4,3.7-17.2,3.7-26.3s-1.3-18-3.7-26.3h-46.7L549,92.3z"/>
	<g id="Curly_1_" class="st1">
		<g>
			<path d="M494.4,257.4v-36.3c10.8,0,31.3-1.2,33.6-2c-0.6-3.3-2.5-8.8-3.8-12.3c-4.6-13-10.9-30.7-0.3-46
				c-10.8-15.4-4.5-33.2,0.1-46.2c1.3-3.6,3.2-9.1,3.8-12.3c-2.3-0.8-22.7-2-33.4-2V64c15.7,0,53,1.8,63.9,17.3
				c10.6,15,4.4,32.6-0.1,45.4c-1.4,3.9-3.5,10-3.9,13.2c2.3,0.9,8.3,2.7,21.7,2.7v36.3c-13.3,0-19.2,1.7-21.5,2.6
				c0.4,3.3,2.6,9.3,3.9,13.1c4.6,12.8,10.8,30.4,0.2,45.5C547.6,255.6,510.2,257.4,494.4,257.4z M553.2,182.1L553.2,182.1
				L553.2,182.1z M553.1,139.3L553.1,139.3L553.1,139.3z"/>
		</g>
		<g>
			<path d="M401.4,240.1c-10.6-15.1-4.4-32.6,0.2-45.5c1.4-3.8,3.5-9.9,3.9-13.1c-2.3-0.9-8.3-2.6-21.5-2.6v-36.3
				c13.4,0,19.4-1.7,21.7-2.7c-0.4-3.3-2.6-9.4-3.9-13.2c-4.5-12.8-10.7-30.4-0.1-45.4c11-15.5,48.2-17.3,63.9-17.3v36.3
				c-10.7,0-31.1,1.2-33.4,2c0.6,3.3,2.5,8.8,3.8,12.3c4.6,13,10.9,30.8,0.1,46.2c10.7,15.3,4.4,33.1-0.3,46
				c-1.3,3.6-3.2,9.1-3.8,12.3c2.4,0.8,22.8,2,33.6,2v36.3C449.8,257.4,412.4,255.6,401.4,240.1z M406.8,182.1L406.8,182.1
				L406.8,182.1z M406.9,139.3L406.9,139.3L406.9,139.3z"/>
		</g>
	</g>
	<circle id="Dot_1_" cx="480.3" cy="159.8" r="95.8"/>
</g>
<g id="Addons_2_">
	<path id="Asterisk_2_" d="M548.3,94c-12.6-12.9-28.6-22.5-46.8-27.1l-24,41.5l-24-41.5c-18.2,4.5-34.1,14-46.8,27.1l24,41.4h-47.8
		c-2.5,8.6-3.8,17.7-3.8,27.1c0,9.4,1.4,18.5,3.8,27.1h47.8l-24,41.4c12.6,12.9,28.6,22.5,46.8,27.1l24-41.5l24,41.5
		c18.2-4.5,34.1-14,46.8-27.1l-24-41.4h47.8c2.5-8.6,3.8-17.7,3.8-27.1c0-9.4-1.4-18.5-3.8-27.1h-47.8L548.3,94z"/>
	<g id="Curly_2_" class="st0">
		<g class="st1">
			<path d="M492.9,260.9V224c11.1,0,31.8-1.2,34.3-2c-0.6-3.4-2.6-8.9-3.8-12.6c-4.8-13.2-11.1-31.2-0.3-46.9
				c-11.1-15.7-4.6-33.7,0-46.9c1.2-3.7,3.2-9.2,3.8-12.6c-2.5-0.8-23.1-2-34-2V64c16,0,54,1.8,65.1,17.5
				c10.8,15.4,4.5,33.2-0.2,46.1c-1.4,4-3.5,10.2-4,13.5c2.3,0.9,8.5,2.8,22,2.8v36.9c-13.5,0-19.5,1.7-22,2.6
				c0.5,3.4,2.6,9.5,4,13.4c4.6,13.1,11.1,30.9,0.2,46.3C547.1,259.1,509.1,260.9,492.9,260.9z M552.8,184.3L552.8,184.3
				L552.8,184.3z M552.8,140.6L552.8,140.6L552.8,140.6z"/>
		</g>
		<g class="st1">
			<path d="M398.3,243.2c-10.8-15.4-4.5-33.2,0.2-46.3c1.4-3.8,3.5-10,4-13.4c-2.3-0.9-8.5-2.6-22-2.6V144c13.7,0,19.7-1.7,22-2.8
				c-0.5-3.4-2.6-9.5-4-13.5c-4.6-13.1-10.9-30.9-0.2-46.1C409.4,65.8,447.4,64,463.4,64v36.9c-10.9,0-31.7,1.2-34,2
				c0.6,3.4,2.6,8.9,3.8,12.6c4.6,13.2,11.1,31.4,0,46.9c10.9,15.7,4.5,33.7-0.3,46.9c-1.2,3.7-3.2,9.2-3.8,12.6
				c2.5,0.8,23.2,2,34.3,2v36.9C447.6,260.9,409.4,259.1,398.3,243.2z M403.7,184.3L403.7,184.3L403.7,184.3z M403.9,140.6
				L403.9,140.6L403.9,140.6z"/>
		</g>
	</g>
	<circle id="Dot_2_" class="st0" cx="477.6" cy="162.4" r="98.4"/>
</g>
</svg>
