<?xml version="1.0" encoding="utf-8"?>
<!-- Generator: Adobe Illustrator 23.0.3, SVG Export Plug-In . SVG Version: 6.00 Build 0)  -->
<svg version="1.1" id="Livello_1" xmlns="http://www.w3.org/2000/svg" xmlns:xlink="http://www.w3.org/1999/xlink" x="0px" y="0px"
	 viewBox="0 0 640 512" style="enable-background:new 0 0 640 512;" xml:space="preserve">
<style type="text/css">
	.st0{display:none;}
	.st1{display:inline;}
</style>
<g focusable="false">
</g>
<g id="Invisible" class="st0">
	<path class="st1" d="M320,400c-75.9,0-137.3-58.7-142.9-133.1L72.2,185.8c-13.8,17.3-26.5,35.6-36.7,55.6c-4.6,9.2-4.6,20,0,29.2
		C89.7,376.4,197.1,448,320,448c26.9,0,52.9-4,77.9-10.5L346,397.4C337.4,399,328.7,399.9,320,400z"/>
	<path class="st1" d="M633.8,458.1l-110.5-85.4c33.6-28.3,61.2-63,81.3-102.1c4.6-9.2,4.6-20,0-29.2C550.3,135.6,442.9,64,320,64
		c-51.5,0.1-102.1,13-147.3,37.7L45.5,3.4c-7-5.4-17-4.2-22.5,2.8l0,0L3.4,31.5c-5.4,7-4.2,17,2.8,22.5l588.4,454.7
		c7,5.4,17,4.2,22.5-2.8l0,0l19.6-25.3C642.1,473.6,640.8,463.5,633.8,458.1z M450.1,316.1l-39.3-30.4c3.3-9.6,5.1-19.6,5.2-29.7
		c0.7-52.3-41.2-95.3-93.5-96c-9.4-0.1-18.8,1.2-27.8,3.8c6,8.2,9.3,18.1,9.3,28.2c-0.1,3.4-0.7,6.7-1.5,10l-73.6-56.9
		c25.6-21.4,57.8-33.1,91.2-33.1c79.5,0,144,64.4,144,143.8c0,0.1,0,0.1,0,0.2C464,277.6,458.7,297.8,450.1,316.1L450.1,316.1z"/>
</g>
<g id="Invisibile_cond">
	<path d="M320,400c-75.9,0-137.3-58.7-142.9-133.1L72.2,185.8c-13.8,17.3-26.5,35.6-36.7,55.6c-4.6,9.2-4.6,20,0,29.2
		C89.7,376.4,197.1,448,320,448c26.9,0,52.9-4,77.9-10.5L346,397.4C337.4,399,328.7,399.9,320,400z"/>
	<path d="M633.8,458.1l-110.5-85.4c33.6-28.3,61.2-63,81.3-102.1c4.6-9.2,4.6-20,0-29.2c-3.5-6.8-7.2-13.5-11.2-20.1
		C571.5,261,529.2,288,480.7,288c-6.8,0-13.6-0.5-20.1-1.6c-2.4,10.3-5.9,20.3-10.4,29.7l0,0l-39.3-30.4c1.8-5.2,3.1-10.5,4-15.8
		c-36.1-21.5-60.7-60.2-62.6-104.7c-9.3-3.2-19.3-5-29.6-5.1c-9.4-0.1-18.8,1.2-27.8,3.8c6,8.2,9.3,18.1,9.3,28.2
		c-0.1,3.4-0.7,6.7-1.5,10l-73.6-56.9c25.6-21.4,57.8-33.1,91.2-33.1c13.5,0,26.6,1.9,39,5.3c6-17.3,15.6-33,27.9-46.1
		c-21.6-4.7-44-7.3-67-7.3c-51.5,0.1-102.1,13-147.3,37.7L45.5,3.4c-7-5.4-17-4.2-22.5,2.8l0,0L3.4,31.5c-5.4,7-4.2,17,2.8,22.5
		l588.4,454.7c7,5.4,17,4.2,22.5-2.8l0,0l19.6-25.3C642.1,473.6,640.8,463.5,633.8,458.1z"/>
</g>
<g id="Repeatable" class="st0">
	<path class="st1" d="M301.3,288l-218.6,0.4c-10.4,0-18.8-8.4-18.8-18.8L64,82.8C64,72.4,72.4,64,82.8,64l218.5,0.5
		c10.4,0,18.8,8.4,18.8,18.8v186C320.1,279.6,311.7,288,301.3,288z"/>
	<path class="st1" d="M557.3,224.5l-76.2-0.2v157.9c0,10.4-8.4,18.8-18.8,18.8L320,401.2v28.4c0,10.4,8.4,18.8,18.8,18.8l218.6-0.4
		c10.4,0,18.8-8.4,18.8-18.8v-186C576.1,232.9,567.7,224.5,557.3,224.5z"/>
	<path class="st1" d="M429.3,144.5l-76.2-0.2v157.9c0,10.4-8.4,18.8-18.8,18.8L192,321.2v28.4c0,10.4,8.4,18.8,18.8,18.8l218.6-0.4
		c10.4,0,18.8-8.4,18.8-18.8v-186C448.1,152.9,439.7,144.5,429.3,144.5z"/>
</g>
<g id="Repeatable_cond" class="st0">
	<path class="st1" d="M301.3,288l-218.6,0.4c-10.4,0-18.8-8.4-18.8-18.8L64,82.8C64,72.4,72.4,64,82.8,64l218.5,0.5
		c10.4,0,18.8,8.4,18.8,18.8v186C320.1,279.6,311.7,288,301.3,288z"/>
	<path class="st1" d="M353.1,176v126.3c0,10.4-8.4,18.8-18.8,18.8L192,321.2v28.4c0,10.4,8.4,18.8,18.8,18.8l218.6-0.4
		c10.4,0,18.8-8.4,18.8-18.8v-65.4C398,270.8,359.8,228.3,353.1,176z"/>
	<path class="st1" d="M481.1,288v94.2c0,10.4-8.4,18.8-18.8,18.8L320,401.2v28.4c0,10.4,8.4,18.8,18.8,18.8l218.6-0.4
		c10.4,0,18.8-8.4,18.8-18.8V245.5C552.6,271.5,518.8,287.9,481.1,288z"/>
</g>
<g id="Required" class="st0">
	<path class="st1" d="M568,256c0,137-111,248-248,248S72,393,72,256C72,119.1,183,8,320,8S568,119.1,568,256z M320,306
		c-25.4,0-46,20.6-46,46s20.6,46,46,46s46-20.6,46-46S345.4,306,320,306z M276.3,140.7l7.4,136c0.3,6.4,5.6,11.3,12,11.3h48.5
		c6.4,0,11.6-5,12-11.3l7.4-136c0.4-6.9-5.1-12.7-12-12.7h-63.4C281.4,128,276,133.8,276.3,140.7L276.3,140.7z"/>
</g>
<g id="Required_cond" class="st0">
	<path class="st1" d="M480.6,288c-55.1,0-102.1-34.7-120.4-83.4l-3.9,72c-0.3,6.4-5.6,11.3-12,11.3h-48.5c-6.4,0-11.6-5-12-11.3
		l-7.4-136l0,0c-0.4-6.9,5.1-12.7,12-12.7h63.4c1.4,0,2.8,0.3,4,0.7c10.4-42.4,41.8-76.5,82.5-90.7C403.1,18.9,362.8,8,320,8
		C183,8,72,119.1,72,256c0,137,111,248,248,248s248-111,248-248c0-0.8,0-1.5,0-2.3C545,275,514.3,288,480.6,288z M320,398
		c-25.4,0-46-20.6-46-46s20.6-46,46-46s46,20.6,46,46S345.4,398,320,398z"/>
</g>
<g id="Validate" class="st0">
	<path class="st1" d="M568,257c0,137-111,248-248,248S72,394,72,257S183,9,320,9S568,120,568,257z M291.3,388.3l184-184
		c6.2-6.2,6.2-16.4,0-22.6l-22.6-22.6c-6.2-6.2-16.4-6.2-22.6,0L280,309.1L209.9,239c-6.2-6.2-16.4-6.2-22.6,0l-22.6,22.6
		c-6.2,6.2-6.2,16.4,0,22.6l104,104C274.9,394.6,285.1,394.6,291.3,388.3L291.3,388.3z"/>
</g>
<g id="Validate_cond" class="st0">
	<path class="st1" d="M480.6,288c-25.4,0-49-7.3-68.9-20L291.3,388.3l0,0c-6.2,6.2-16.4,6.2-22.6,0l-104-104
		c-6.2-6.2-6.2-16.4,0-22.6l22.6-22.6c6.2-6.2,16.4-6.2,22.6,0l70.1,70.1l87.8-87.8C357.7,203,352,182,352,159.5
		c0-55.8,35.5-103.2,85.1-121C402.2,19.6,362.4,9,320,9C183,9,72,120,72,257s111,248,248,248s248-111,248-248c0-1.1,0-2.2,0-3.2
		C545,275,514.3,288,480.6,288z"/>
</g>
<g>
	<path d="M456.9,178.3v-13.1c0-10,2-18.4,6.1-25.3c4.1-6.9,11.3-13.6,21.7-20.1c8.2-5.2,14.2-9.9,17.8-14c3.6-4.2,5.4-9,5.4-14.4
		c0-4.3-1.9-7.7-5.8-10.2c-3.9-2.5-8.9-3.7-15.1-3.7c-15.4,0-33.3,5.4-53.9,16.3l-21.2-41.5c25.3-14.5,51.8-21.7,79.4-21.7
		c22.7,0,40.5,5,53.4,15c12.9,10,19.4,23.6,19.4,40.8c0,12.3-2.9,23-8.6,32c-5.8,9-14.9,17.5-27.6,25.6c-10.7,6.9-17.4,12-20.1,15.2
		c-2.7,3.2-4,7-4,11.4v7.8H456.9z M450.4,231.7c0-9.4,2.7-16.6,8.2-21.7c5.4-5.1,13.5-7.6,24-7.6c10.2,0,18,2.6,23.4,7.7
		c5.4,5.1,8.2,12.3,8.2,21.6c0,9.3-2.8,16.4-8.5,21.5s-13.4,7.6-23.1,7.6c-10.1,0-18-2.5-23.7-7.6
		C453.2,248.3,450.4,241.1,450.4,231.7z"/>
</g>
</svg>
