<?xml version="1.0" encoding="utf-8"?>
<!-- Generator: Adobe Illustrator 23.0.3, SVG Export Plug-In . SVG Version: 6.00 Build 0)  -->
<svg version="1.1" xmlns="http://www.w3.org/2000/svg" xmlns:xlink="http://www.w3.org/1999/xlink" x="0px" y="0px"
	 viewBox="0 0 640 512" style="enable-background:new 0 0 640 512;" xml:space="preserve">
<style type="text/css">
	.st0{display:none;}
	.st1{display:inline;}
</style>
<g id="Livello_1" focusable="false">
</g>
<g id="Invisible" class="st0">
	<path class="st1" d="M320,400c-75.9,0-137.3-58.7-142.9-133.1L72.2,185.8c-13.8,17.3-26.5,35.6-36.7,55.6c-4.6,9.2-4.6,20,0,29.2
		C89.7,376.4,197.1,448,320,448c26.9,0,52.9-4,77.9-10.5L346,397.4C337.4,399,328.7,399.9,320,400z"/>
	<path class="st1" d="M633.8,458.1l-110.5-85.4c33.6-28.3,61.2-63,81.3-102.1c4.6-9.2,4.6-20,0-29.2C550.3,135.6,442.9,64,320,64
		c-51.5,0.1-102.1,13-147.3,37.7L45.5,3.4c-7-5.4-17-4.2-22.5,2.8c0,0,0,0,0,0L3.4,31.5c-5.4,7-4.2,17,2.8,22.5l588.4,454.7
		c7,5.4,17,4.2,22.5-2.8c0,0,0,0,0,0l19.6-25.3C642.1,473.6,640.8,463.5,633.8,458.1z M450.1,316.1l-39.3-30.4
		c3.3-9.6,5.1-19.6,5.2-29.7c0.7-52.3-41.2-95.3-93.5-96c-9.4-0.1-18.8,1.2-27.8,3.8c6,8.2,9.3,18.1,9.3,28.2
		c-0.1,3.4-0.7,6.7-1.5,10l-73.6-56.9c25.6-21.4,57.8-33.1,91.2-33.1c79.5,0,144,64.4,144,143.8c0,0.1,0,0.1,0,0.2
		C464,277.6,458.7,297.8,450.1,316.1L450.1,316.1z"/>
</g>
<g id="Invisibile_cond" class="st0">
	<g class="st1">
		<path d="M320,400c-75.9,0-137.3-58.7-142.9-133.1L72.2,185.8c-13.8,17.3-26.5,35.6-36.7,55.6c-4.6,9.2-4.6,20,0,29.2
			C89.7,376.4,197.1,448,320,448c26.9,0,52.9-4,77.9-10.5L346,397.4C337.4,399,328.7,399.9,320,400z"/>
		<path d="M633.8,458.1l-110.5-85.4c33.6-28.3,61.2-63,81.3-102.1c4.6-9.2,4.6-20,0-29.2c-7.8-15.3-16.8-29.8-26.7-43.5
			C560.7,214.1,537.5,224,512,224c-21.5,0-41.3-7-57.3-18.9c6,15.8,9.2,32.9,9.3,50.8c0,0.1,0,0.1,0,0.2c0,21.6-5.3,41.8-13.9,60.1
			v0l-39.3-30.4c3.3-9.6,5.1-19.6,5.2-29.7c0.7-52.3-41.2-95.3-93.5-96c-9.4-0.1-18.8,1.2-27.8,3.8c6,8.2,9.3,18.1,9.3,28.2
			c-0.1,3.4-0.7,6.7-1.5,10l-73.6-56.9c25.6-21.4,57.8-33.1,91.2-33.1c38.3,0,73,14.9,98.8,39.2C417,143.8,416,136,416,128
			c0-16.3,4.1-31.6,11.2-45C393.6,70.7,357.5,64,320,64c-51.5,0.1-102.1,13-147.3,37.7L45.5,3.4c-7-5.4-17-4.2-22.5,2.8c0,0,0,0,0,0
			L3.4,31.5c-5.4,7-4.2,17,2.8,22.5l588.4,454.7c7,5.4,17,4.2,22.5-2.8c0,0,0,0,0,0l19.6-25.3C642.1,473.6,640.8,463.5,633.8,458.1z
			"/>
	</g>
</g>
<g id="Repeatable">
	<path d="M301.3,288l-218.6,0.4c-10.4,0-18.8-8.4-18.8-18.8l0.1-186.8c0-10.4,8.4-18.8,18.8-18.8l218.5,0.5
		c10.4,0,18.8,8.4,18.8,18.8l0,186C320.1,279.6,311.7,288,301.3,288z"/>
	<path d="M557.3,224.5l-76.2-0.2l0,157.9c0,10.4-8.4,18.8-18.8,18.8L320,401.2l0,28.4c0,10.4,8.4,18.8,18.8,18.8l218.6-0.4
		c10.4,0,18.8-8.4,18.8-18.8l0-186C576.1,232.9,567.7,224.5,557.3,224.5z"/>
	<path d="M429.3,144.5l-76.2-0.2l0,157.9c0,10.4-8.4,18.8-18.8,18.8L192,321.2l0,28.4c0,10.4,8.4,18.8,18.8,18.8l218.6-0.4
		c10.4,0,18.8-8.4,18.8-18.8l0-186C448.1,152.9,439.7,144.5,429.3,144.5z"/>
</g>
<g id="Addons">
	<path id="Asterisk" class="st0" d="M558,83.5c-8.2-8.4-18.6-14.6-30.4-17.6l-15.6,27l-15.6-27c-11.8,2.9-22.2,9.1-30.4,17.6
		l15.6,26.9h-31.1c-1.6,5.6-2.5,11.5-2.5,17.6s0.9,12,2.5,17.6h31.1L466,172.5c8.2,8.4,18.6,14.6,30.4,17.6l15.6-27l15.6,27
		c11.8-2.9,22.2-9.1,30.4-17.6l-15.6-26.9h31.1c1.6-5.6,2.5-11.5,2.5-17.6s-0.9-12-2.5-17.6h-31.1L558,83.5z"/>
	<g id="Curly" class="st0">
		<g class="st1">
			<path d="M522,192v-24c7.2,0,20.7-0.8,22.3-1.3c-0.4-2.2-1.7-5.8-2.5-8.2c-3.1-8.6-7.2-20.3-0.2-30.5c-7.2-10.2-3-21.9,0-30.5
				c0.8-2.4,2.1-6,2.5-8.2c-1.6-0.5-15-1.3-22.1-1.3V64c10.4,0,35.1,1.2,42.3,11.4c7,10,2.9,21.6-0.1,30c-0.9,2.6-2.3,6.6-2.6,8.8
				c1.5,0.6,5.5,1.8,14.3,1.8v24c-8.8,0-12.7,1.1-14.3,1.7c0.3,2.2,1.7,6.2,2.6,8.7c3,8.5,7.2,20.1,0.1,30.1
				C557.2,190.8,532.5,192,522,192z M560.9,142.2L560.9,142.2L560.9,142.2z M560.9,113.8L560.9,113.8L560.9,113.8z"/>
		</g>
		<g class="st1">
			<path d="M460.5,180.5c-7-10-2.9-21.6,0.1-30.1c0.9-2.5,2.3-6.5,2.6-8.7c-1.5-0.6-5.5-1.7-14.3-1.7v-24c8.9,0,12.8-1.1,14.3-1.8
				c-0.3-2.2-1.7-6.2-2.6-8.8c-3-8.5-7.1-20.1-0.1-30c7.2-10.2,31.9-11.4,42.3-11.4v24c-7.1,0-20.6,0.8-22.1,1.3
				c0.4,2.2,1.7,5.8,2.5,8.2c3,8.6,7.2,20.4,0,30.5c7.1,10.2,2.9,21.9-0.2,30.5c-0.8,2.4-2.1,6-2.5,8.2c1.6,0.5,15.1,1.3,22.3,1.3
				v24C492.5,192,467.7,190.8,460.5,180.5z M464,142.2L464,142.2L464,142.2z M464.1,113.8L464.1,113.8L464.1,113.8z"/>
		</g>
	</g>
	<circle id="Dot" class="st0" cx="512" cy="128" r="64"/>
</g>
</svg>
